{"title":"Marmaduke CAM V2 MP4 FEEL-FREE","uid":5656911,"size":598568583,"categoryP":"video","categoryS":"movies","magnet":"?xt=urn:btih:e28f01b2b04947a037b686da63fc35fac46391e0&amp;dn=Marmaduke+CAM+V2+MP4+FEEL-FREE&amp;tr=udp%3A%2F%2Ftracker.openbittorrent.com%3A80&amp;tr=udp%3A%2F%2Fopen.demonii.com%3A1337&amp;tr=udp%3A%2F%2Ftracker.coppersurfer.tk%3A6969&amp;tr=udp%3A%2F%2Fexodus.desync.com%3A6969","seeders":0,"leechers":0,"uploader":"hiest","files":8,"time":1277839365,"description":"Genre:Comedy | Family\nLanguage:English\nIMDb:http://www.imdb.com/title/tt1392197/\nSource.Imagine.Thanks\nEncoder: Tony2\n..........................................\nGeneral\nComplete name : Marmaduke CAM V2 MP4 FEEL-FREE\nFormat : MPEG-4\nFormat profile : Base Media\nCodec ID : isom\nFile size : 569 MiB\nDuration : 1h 23mn\nOverall bit rate : 958 Kbps\n...........................................\nVideo\nID : 1\nFormat : AVC\nFormat/Info : Advanced Video Codec\nFormat profile : &lt;a class=&quot;__cf_email__&quot; href=&quot;/cdn-cgi/l/email-protection&quot; data-cfemail=&quot;9dd0fcf4f3ddd1acb3ae&quot;&gt;[email&amp;#160;protected]&lt;/a&gt;&lt;script cf-hash='f9e31' type=&quot;text/javascript&quot;&gt;\n/* &lt;![CDATA[ */!function(){try{var t=&quot;currentScript&quot;in document?document.currentScript:function(){for(var t=document.getElementsByTagName(&quot;script&quot;),e=t.length;e--;)if(t[e].getAttribute(&quot;cf-hash&quot;))return t[e]}();if(t&amp;&amp;t.previousSibling){var e,r,n,i,c=t.previousSibling,a=c.getAttribute(&quot;data-cfemail&quot;);if(a){for(e=&quot;&quot;,r=parseInt(a.substr(0,2),16),n=2;a.length-n;n+=2)i=parseInt(a.substr(n,2),16)^r,e+=String.fromCharCode(i);e=document.createTextNode(e),c.parentNode.replaceChild(e,c)}}}catch(u){}}();/* ]]&gt; */&lt;/script&gt;\nFormat settings, CABAC : Yes\nFormat settings, ReFrames : 1 frame\nCodec ID : avc1\nCodec ID/Info : Advanced Video Coding\nDuration : 1h 23mn\nBit rate mode : Variable\nBit rate : 825 Kbps\nWidth : 720 pixels\nHeight : 304 pixels\nDisplay aspect ratio : 2.35:1\nFrame rate mode : Constant\nFrame rate : 29.970 fps\nResolution : 24 bits\nColorimetry : 4:2:0\nScan type : Progressive\nBits/(Pixel*Frame) : 0.126\nStream size : 490 MiB (86%)\n............................................\nAudio\nID : 2\nFormat : AAC\nFormat/Info : Advanced Audio Codec\nFormat version : Version 4\nFormat profile : LC\nFormat settings, SBR : No\nCodec ID : 40\nDuration : 1h 23mn\nBit rate mode : Variable\nBit rate : 128 Kbps\nChannel(s) : 2 channels\nChannel positions : L R\nSampling rate : 44.1 KHz\nResolution : 16 bits\nStream size : 75.9 MiB (13%)\n.............................................\nPlot:\nA suburban family moves to a new neighborhood with their large yet lovable Great Dane, who has a tendency to wreak havoc in his own oblivious way\n...................................................\nScreens:\n &lt;a href=&quot;\nhttp://postimg.com/image/18000/17114.jpg&quot; rel=&quot;nofollow&quot; target=&quot;_NEW&quot;&gt;\nhttp://postimg.com/image/18000/17114.jpg&lt;/a&gt;\n.........................................................","torrent":{"xt":"urn:btih:e28f01b2b04947a037b686da63fc35fac46391e0","amp;dn":"Marmaduke+CAM+V2+MP4+FEEL-FREE","amp;tr":["udp%3A%2F%2Ftracker.openbittorrent.com%3A80","udp%3A%2F%2Fopen.demonii.com%3A1337","udp%3A%2F%2Ftracker.coppersurfer.tk%3A6969","udp%3A%2F%2Fexodus.desync.com%3A6969"],"infoHash":"e28f01b2b04947a037b686da63fc35fac46391e0","infoHashBuffer":{"type":"Buffer","data":[226,143,1,178,176,73,71,160,55,182,134,218,99,252,53,250,196,99,145,224]},"announce":[],"urlList":[]}}